# xmcd
#
# Track frame offsets: 
#        150
#        22377
#        40152
#        59005
#        78236
#        98084
#        115838
#        132744
#        150346
#        166963
#        180097
#        197186
#
# Disc length: 2898 seconds
#
# Revision: 0
# Processed by: cddbd v1.5.2PL0 Copyright (c) Steve Scherf et al.
# Submitted via: ExactAudioCopyFreeDBPlugin 1.0
#
DISCID=9b0b500c
DTITLE=Travis Larson Band - Rate Of Change
DYEAR=2006
DGENRE=Blues
TTITLE0=Sticks And Stones
TTITLE1=Up In Arms
TTITLE2=Winter Still
TTITLE3=Other Place
TTITLE4=Dear God
TTITLE5=The Saros
TTITLE6=Thin Air
TTITLE7=Sums
TTITLE8=Hell's Half Acre
TTITLE9=Good And The Bad
TTITLE10=Plain Ugly
TTITLE11=Room To Breathe
EXTD=
EXTT0=
EXTT1=
EXTT2=
EXTT3=
EXTT4=
EXTT5=
EXTT6=
EXTT7=
EXTT8=
EXTT9=
EXTT10=
EXTT11=
PLAYORDER=
